Black Display Wide — UC.ufo
<glyph name="A" format="1">
  <advance width="1371"/>
  <unicode hex="0041"/>
  <outline>
    <contour>
      <point x="771" y="1486" type="move" name="top"/>
    </contour>
    <contour>
      <point x="1141" y="0" type="move" name="ogonek"/>
    </contour>
    <contour>
      <point x="539" y="0" type="move" name="bottom"/>
    </contour>
    <contour>
      <point x="-110" y="36" type="line"/>
      <point x="-112" y="0" type="line"/>
      <point x="359" y="0" type="line"/>
      <point x="364" y="36" type="line"/>
      <point x="154" y="90" type="line"/>
      <point x="588" y="1163" type="line"/>
      <point x="671" y="1400" type="line"/>
      <point x="621" y="1364" type="line"/>
      <point x="655" y="1096" type="line"/>
      <point x="824" y="72" type="line"/>
      <point x="663" y="38" type="line"/>
      <point x="658" y="0" type="line"/>
      <point x="1356" y="0" type="line"/>
      <point x="1360" y="38" type="line"/>
      <point x="1238" y="72" type="line"/>
      <point x="988" y="1490" type="line"/>
      <point x="653" y="1488" type="line"/>
      <point x="46" y="93" type="line"/>
    </contour>
    <contour>
      <point x="251" y="498" type="line"/>
      <point x="251" y="432" type="line"/>
      <point x="894" y="432" type="line"/>
      <point x="893" y="498" type="line"/>
    </contour>
  </outline>
</glyph>
<glyph name="B" format="1">
  <advance width="1404"/>
  <unicode hex="0042"/>
  <outline>
    <contour>
      <point x="799" y="1486" type="move" name="top"/>
    </contour>
    <contour>
      <point x="573" y="0" type="move" name="bottom"/>
    </contour>
    <contour>
      <point x="-36" y="38" type="line"/>
      <point x="-41" y="0" type="line"/>
      <point x="288" y="0" type="line" smooth="yes"/>
      <point x="420" y="0"/>
      <point x="476" y="-20"/>
      <point x="692" y="-20" type="curve"/>
      <point x="1070" y="-20"/>
      <point x="1365" y="118"/>
      <point x="1363" y="465" type="curve"/>
      <point x="1362" y="642"/>
      <point x="1228" y="776"/>
      <point x="966" y="777" type="curve"/>
      <point x="1226" y="817"/>
      <point x="1370" y="970"/>
      <point x="1369" y="1193" type="curve"/>
      <point x="1368" y="1344"/>
      <point x="1234" y="1502"/>
      <point x="872" y="1502" type="curve"/>
      <point x="650" y="1502"/>
      <point x="638" y="1488"/>
      <point x="498" y="1486" type="curve"/>
      <point x="169" y="1486" type="line"/>
      <point x="164" y="1450" type="line"/>
      <point x="300" y="1413" type="line"/>
      <point x="112" y="72" type="line"/>
    </contour>
    <contour>
      <point x="661" y="40" type="curve"/>
      <point x="561" y="40"/>
      <point x="504" y="65"/>
      <point x="389" y="92" type="curve"/>
      <point x="489" y="5" type="line"/>
      <point x="592" y="742" type="line"/>
      <point x="545" y="720" type="line"/>
      <point x="567" y="727"/>
      <point x="608" y="730"/>
      <point x="705" y="730" type="curve"/>
      <point x="857" y="730"/>
      <point x="971" y="655"/>
      <point x="972" y="481" type="curve"/>
      <point x="974" y="204"/>
      <point x="853" y="40"/>
    </contour>
    <contour>
      <point x="713" y="794" type="curve"/>
      <point x="606" y="794"/>
      <point x="590" y="792"/>
      <point x="567" y="796" type="curve"/>
      <point x="595" y="770" type="line"/>
      <point x="695" y="1476" type="line"/>
      <point x="554" y="1345" type="line"/>
      <point x="682" y="1437"/>
      <point x="697" y="1442"/>
      <point x="771" y="1442" type="curve"/>
      <point x="901" y="1442"/>
      <point x="996" y="1349"/>
      <point x="997" y="1183" type="curve"/>
      <point x="998" y="934"/>
      <point x="849" y="794"/>
    </contour>
  </outline>
</glyph>
<glyph name="C" format="1">
  <advance width="1345"/>
  <unicode hex="0043"/>
  <outline>
    <contour>
      <point x="906" y="1486" type="move" name="top"/>
    </contour>
    <contour>
      <point x="761" y="0" type="move" name="bottom"/>
    </contour>
    <contour>
      <point x="649" y="-23" type="curve"/>
      <point x="980" y="-23"/>
      <point x="1090" y="58"/>
      <point x="1184" y="58" type="curve"/>
      <point x="1267" y="462" type="line"/>
      <point x="1068" y="462" type="line"/>
      <point x="1048" y="387"/>
      <point x="972" y="180"/>
      <point x="946" y="139" type="curve"/>
      <point x="913" y="72"/>
      <point x="815" y="34"/>
      <point x="731" y="34" type="curve"/>
      <point x="526" y="34"/>
      <point x="480" y="352"/>
      <point x="479" y="547" type="curve"/>
      <point x="477" y="1023"/>
      <point x="621" y="1447"/>
      <point x="877" y="1447" type="curve"/>
      <point x="939" y="1447"/>
      <point x="1004" y="1441"/>
      <point x="1040" y="1410" type="curve"/>
      <point x="1064" y="1007" type="line"/>
      <point x="1308" y="1007" type="line"/>
      <point x="1379" y="1450" type="line"/>
      <point x="1245" y="1450"/>
      <point x="1159" y="1506"/>
      <point x="886" y="1506" type="curve"/>
      <point x="327" y="1506"/>
      <point x="67" y="1050"/>
      <point x="69" y="596" type="curve"/>
      <point x="71" y="290"/>
      <point x="195" y="-23"/>
    </contour>
  </outline>
</glyph>
<glyph name="D" format="1">
  <advance width="1509"/>
  <unicode hex="0044"/>
  <outline>
    <contour>
      <point x="837" y="1486" type="move" name="top"/>
    </contour>
    <contour>
      <point x="618" y="0" type="move" name="bottom"/>
    </contour>
    <contour>
      <point x="-35" y="39" type="line"/>
      <point x="-40" y="0" type="line"/>
      <point x="277" y="0" type="line"/>
      <point x="367" y="0"/>
      <point x="533" y="-23"/>
      <point x="649" y="-23" type="curve"/>
      <point x="1233" y="-23"/>
      <point x="1505" y="404"/>
      <point x="1503" y="923" type="curve"/>
      <point x="1501" y="1221"/>
      <point x="1365" y="1502"/>
      <point x="907" y="1502" type="curve"/>
      <point x="785" y="1502"/>
      <point x="647" y="1486"/>
      <point x="497" y="1486" type="curve"/>
      <point x="170" y="1486" type="line"/>
      <point x="165" y="1450" type="line"/>
      <point x="290" y="1413" type="line"/>
      <point x="102" y="72" type="line"/>
    </contour>
    <contour>
      <point x="636" y="34" type="curve"/>
      <point x="510" y="34"/>
      <point x="511" y="67"/>
      <point x="393" y="79" type="curve"/>
      <point x="490" y="29" type="line"/>
      <point x="690" y="1458" type="line"/>
      <point x="651" y="1410" type="line"/>
      <point x="681" y="1424"/>
      <point x="723" y="1447"/>
      <point x="829" y="1447" type="curve"/>
      <point x="1049" y="1447"/>
      <point x="1104" y="1262"/>
      <point x="1105" y="941" type="curve"/>
      <point x="1107" y="572"/>
      <point x="1017" y="34"/>
    </contour>
  </outline>
</glyph>
<glyph name="E" format="1">
  <advance width="1308"/>
  <unicode hex="0045"/>
  <outline>
    <contour>
      <point x="156" y="1486" type="move" name="topleft"/>
    </contour>
    <contour>
      <point x="788" y="1486" type="move" name="top"/>
    </contour>
    <contour>
      <point x="1043" y="0" type="move" name="ogonek"/>
    </contour>
    <contour>
      <point x="620" y="0" type="move" name="bottom"/>
    </contour>
    <contour>
      <point x="-35" y="39" type="line"/>
      <point x="-41" y="0" type="line"/>
      <point x="1143" y="0" type="line"/>
      <point x="1273" y="457" type="line"/>
      <point x="1090" y="476" type="line"/>
      <point x="881" y="79" type="line"/>
      <point x="493" y="53" type="line"/>
      <point x="587" y="727" type="line"/>
      <point x="1029" y="713" type="line"/>
      <point x="1050" y="821" type="line"/>
      <point x="596" y="792" type="line"/>
      <point x="686" y="1434" type="line"/>
      <point x="1015" y="1408" type="line"/>
      <point x="1110" y="1109" type="line"/>
      <point x="1259" y="1109" type="line"/>
      <point x="1280" y="1486" type="line"/>
      <point x="169" y="1486" type="line"/>
      <point x="164" y="1450" type="line"/>
      <point x="289" y="1413" type="line"/>
      <point x="101" y="72" type="line"/>
    </contour>
  </outline>
</glyph>
<glyph name="F" format="1">
  <advance width="1224"/>
  <unicode hex="0046"/>
  <outline>
    <contour>
      <point x="676" y="-164" type="move" name="btm"/>
    </contour>
    <contour>
      <point x="753" y="1486" type="move" name="top"/>
    </contour>
    <contour>
      <point x="-36" y="38" type="line"/>
      <point x="-41" y="0" type="line"/>
      <point x="798" y="0" type="line"/>
      <point x="802" y="39" type="line"/>
      <point x="498" y="93" type="line"/>
      <point x="587" y="727" type="line"/>
      <point x="1018" y="713" type="line"/>
      <point x="1040" y="821" type="line"/>
      <point x="596" y="792" type="line"/>
      <point x="686" y="1434" type="line"/>
      <point x="1020" y="1408" type="line"/>
      <point x="1115" y="1109" type="line"/>
      <point x="1264" y="1109" type="line"/>
      <point x="1285" y="1486" type="line"/>
      <point x="169" y="1486" type="line"/>
      <point x="164" y="1450" type="line"/>
      <point x="289" y="1413" type="line"/>
      <point x="101" y="72" type="line"/>
    </contour>
  </outline>
</glyph>
<glyph name="G" format="1">
  <advance width="1448"/>
  <unicode hex="0047"/>
  <outline>
    <contour>
      <point x="938" y="1486" type="move" name="top"/>
    </contour>
    <contour>
      <point x="699" y="0" type="move" name="bottom"/>
    </contour>
    <contour>
      <point x="705" y="-23" type="curve"/>
      <point x="897" y="-23"/>
      <point x="1027" y="21"/>
      <point x="1141" y="48" type="curve"/>
      <point x="1197" y="61"/>
      <point x="1248" y="72"/>
      <point x="1300" y="72" type="curve"/>
      <point x="1391" y="725" type="line"/>
      <point x="847" y="725" type="line"/>
      <point x="842" y="689" type="line"/>
      <point x="1012" y="647" type="line"/>
      <point x="937" y="82" type="line"/>
      <point x="884" y="53"/>
      <point x="818" y="34"/>
      <point x="743" y="34" type="curve"/>
      <point x="491" y="34"/>
      <point x="485" y="352"/>
      <point x="484" y="547" type="curve"/>
      <point x="482" y="1043"/>
      <point x="608" y="1447"/>
      <point x="917" y="1447" type="curve"/>
      <point x="1016" y="1447"/>
      <point x="1090" y="1413"/>
      <point x="1108" y="1390" type="curve"/>
      <point x="1145" y="1090" type="line"/>
      <point x="1378" y="1090" type="line"/>
      <point x="1436" y="1450" type="line"/>
      <point x="1399" y="1450"/>
      <point x="1367" y="1454"/>
      <point x="1336" y="1460" type="curve"/>
      <point x="1249" y="1476"/>
      <point x="1156" y="1506"/>
      <point x="926" y="1506" type="curve"/>
      <point x="309" y="1506"/>
      <point x="70" y="1070"/>
      <point x="72" y="596" type="curve"/>
      <point x="74" y="290"/>
      <point x="198" y="-23"/>
    </contour>
  </outline>
</glyph>
<glyph name="H" format="1">
  <advance width="1598"/>
  <unicode hex="0048"/>
  <outline>
    <contour>
      <point x="943" y="1486" type="move" name="top"/>
    </contour>
    <contour>
      <point x="738" y="0" type="move" name="bottom"/>
    </contour>
    <contour>
      <point x="-36" y="38" type="line"/>
      <point x="-41" y="0" type="line"/>
      <point x="628" y="0" type="line"/>
      <point x="635" y="38" type="line"/>
      <point x="495" y="72" type="line"/>
      <point x="683" y="1413" type="line"/>
      <point x="842" y="1450" type="line"/>
      <point x="846" y="1486" type="line"/>
      <point x="169" y="1486" type="line"/>
      <point x="164" y="1450" type="line"/>
      <point x="289" y="1413" type="line"/>
      <point x="101" y="72" type="line"/>
    </contour>
    <contour>
      <point x="825" y="39" type="line"/>
      <point x="820" y="0" type="line"/>
      <point x="1489" y="0" type="line"/>
      <point x="1495" y="39" type="line"/>
      <point x="1369" y="72" type="line"/>
      <point x="1557" y="1413" type="line"/>
      <point x="1696" y="1450" type="line"/>
      <point x="1698" y="1486" type="line"/>
      <point x="1033" y="1486" type="line"/>
      <point x="1027" y="1450" type="line"/>
      <point x="1163" y="1413" type="line"/>
      <point x="976" y="72" type="line"/>
    </contour>
    <contour>
      <point x="500" y="797" type="line"/>
      <point x="501" y="733" type="line"/>
      <point x="1110" y="733" type="line"/>
      <point x="1109" y="797" type="line"/>
    </contour>
  </outline>
</glyph>
<glyph name="I" format="1">
  <advance width="788"/>
  <unicode hex="0049"/>
  <outline>
    <contour>
      <point x="548" y="-164" type="move" name="btm"/>
    </contour>
    <contour>
      <point x="213" y="1486" type="move" name="topleft"/>
    </contour>
    <contour>
      <point x="537" y="1486" type="move" name="top"/>
    </contour>
    <contour>
      <point x="538" y="0" type="move" name="ogonek"/>
    </contour>
    <contour>
      <point x="325" y="0" type="move" name="bottom"/>
    </contour>
    <contour>
      <point x="-14" y="39" type="line"/>
      <point x="-19" y="0" type="line"/>
      <point x="650" y="0" type="line"/>
      <point x="655" y="39" type="line"/>
      <point x="518" y="72" type="line"/>
      <point x="705" y="1413" type="line"/>
      <point x="865" y="1450" type="line"/>
      <point x="869" y="1486" type="line"/>
      <point x="191" y="1486" type="line"/>
      <point x="186" y="1450" type="line"/>
      <point x="311" y="1413" type="line"/>
      <point x="125" y="72" type="line"/>
    </contour>
  </outline>
</glyph>
<glyph name="J" format="1">
  <advance width="733"/>
  <unicode hex="004A"/>
  <outline>
    <contour>
      <point x="303" y="-164" type="move" name="btm"/>
    </contour>
    <contour>
      <point x="537" y="1486" type="move" name="top"/>
    </contour>
    <contour>
      <point x="-158" y="-263" type="curve"/>
      <point x="-122" y="-312" type="line"/>
      <point x="274" y="-250"/>
      <point x="453" y="-79"/>
      <point x="512" y="140" type="curve"/>
      <point x="581" y="395"/>
      <point x="611" y="781"/>
      <point x="691" y="1413" type="curve"/>
      <point x="831" y="1450" type="line"/>
      <point x="835" y="1486" type="line"/>
      <point x="166" y="1486" type="line"/>
      <point x="161" y="1450" type="line"/>
      <point x="305" y="1413" type="line"/>
      <point x="266" y="989"/>
      <point x="209" y="517"/>
      <point x="147" y="146" type="curve"/>
      <point x="117" y="-31"/>
      <point x="39" y="-198"/>
    </contour>
  </outline>
</glyph>
<glyph name="K" format="1">
  <advance width="1460"/>
  <unicode hex="004B"/>
  <outline>
    <contour>
      <point x="970" y="1486" type="move" name="top"/>
    </contour>
    <contour>
      <point x="847" y="0" type="move" name="bottom"/>
    </contour>
    <contour>
      <point x="-36" y="38" type="line"/>
      <point x="-41" y="0" type="line"/>
      <point x="623" y="0" type="line"/>
      <point x="630" y="38" type="line"/>
      <point x="490" y="72" type="line"/>
      <point x="678" y="1413" type="line"/>
      <point x="837" y="1450" type="line"/>
      <point x="841" y="1486" type="line"/>
      <point x="169" y="1486" type="line"/>
      <point x="164" y="1450" type="line"/>
      <point x="289" y="1413" type="line"/>
      <point x="101" y="72" type="line"/>
    </contour>
    <contour>
      <point x="496" y="622" type="line"/>
      <point x="527" y="553" type="line"/>
      <point x="1431" y="1409" type="line"/>
      <point x="1581" y="1452" type="line"/>
      <point x="1586" y="1486" type="line"/>
      <point x="1137" y="1486" type="line"/>
      <point x="1132" y="1452" type="line"/>
      <point x="1289" y="1410" type="line"/>
    </contour>
    <contour>
      <point x="1044" y="0" type="curve"/>
      <point x="1523" y="0" type="line"/>
      <point x="1529" y="40" type="line"/>
      <point x="1443" y="66" type="line"/>
      <point x="1360" y="110"/>
      <point x="1249" y="359"/>
      <point x="1150" y="568" type="curve"/>
      <point x="1053" y="772"/>
      <point x="1006" y="874"/>
      <point x="951" y="984" type="curve"/>
      <point x="671" y="744" type="line"/>
      <point x="715" y="655"/>
      <point x="826" y="341"/>
      <point x="897" y="201" type="curve"/>
      <point x="963" y="73"/>
      <point x="976" y="0"/>
    </contour>
  </outline>
</glyph>
<glyph name="L" format="1">
  <advance width="1266"/>
  <unicode hex="004C"/>
  <outline>
    <contour>
      <point x="902" y="1110" type="move" name="car"/>
    </contour>
    <contour>
      <point x="539" y="1486" type="move" name="top"/>
    </contour>
    <contour>
      <point x="587" y="0" type="move" name="bottom"/>
    </contour>
    <contour>
      <point x="-36" y="38" type="line"/>
      <point x="-41" y="0" type="line"/>
      <point x="1120" y="0" type="line"/>
      <point x="1245" y="523" type="line"/>
      <point x="1063" y="542" type="line"/>
      <point x="866" y="84" type="line"/>
      <point x="492" y="53" type="line"/>
      <point x="683" y="1413" type="line"/>
      <point x="843" y="1450" type="line"/>
      <point x="847" y="1486" type="line"/>
      <point x="169" y="1486" type="line"/>
      <point x="164" y="1450" type="line"/>
      <point x="289" y="1413" type="line"/>
      <point x="101" y="72" type="line"/>
    </contour>
  </outline>
</glyph>
<glyph name="M" format="1">
  <advance width="1961"/>
  <unicode hex="004D"/>
  <outline>
    <contour>
      <point x="1096" y="1486" type="move" name="top"/>
    </contour>
    <contour>
      <point x="836" y="0" type="move" name="bottom"/>
    </contour>
    <contour>
      <point x="1364" y="1486" type="line"/>
      <point x="1019" y="524" type="line"/>
      <point x="927" y="237" type="line"/>
      <point x="906" y="524" type="line"/>
      <point x="813" y="1486" type="line"/>
      <point x="238" y="1486" type="line"/>
      <point x="232" y="1450" type="line"/>
      <point x="410" y="1413" type="line"/>
      <point x="77" y="102" type="line"/>
      <point x="-88" y="39" type="line"/>
      <point x="-91" y="0" type="line"/>
      <point x="360" y="0" type="line"/>
      <point x="364" y="39" type="line"/>
      <point x="180" y="102" type="line"/>
      <point x="398" y="1045" type="line"/>
      <point x="471" y="1366" type="line"/>
      <point x="492" y="1047" type="line"/>
      <point x="595" y="0" type="line"/>
      <point x="917" y="0" type="line"/>
      <point x="1291" y="1046" type="line"/>
      <point x="1397" y="1360" type="line"/>
      <point x="1384" y="1044" type="line"/>
      <point x="1334" y="72" type="line"/>
      <point x="1166" y="38" type="line"/>
      <point x="1161" y="0" type="line"/>
      <point x="1899" y="0" type="line"/>
      <point x="1904" y="36" type="line"/>
      <point x="1726" y="72" type="line"/>
      <point x="1776" y="1413" type="line"/>
      <point x="1962" y="1451" type="line"/>
      <point x="1967" y="1486" type="line"/>
    </contour>
  </outline>
</glyph>
<glyph name="N" format="1">
  <advance width="1455"/>
  <unicode hex="004E"/>
  <outline>
    <contour>
      <point x="915" y="1486" type="move" name="top"/>
    </contour>
    <contour>
      <point x="738" y="0" type="move" name="bottom"/>
    </contour>
    <contour>
      <point x="-36" y="36" type="line"/>
      <point x="-38" y="0" type="line"/>
      <point x="435" y="0" type="line"/>
      <point x="441" y="36" type="line"/>
      <point x="216" y="95" type="line"/>
      <point x="375" y="1441" type="line"/>
      <point x="315" y="1433" type="line"/>
      <point x="451" y="1058" type="line"/>
      <point x="957" y="0" type="line"/>
      <point x="1204" y="0" type="line"/>
      <point x="1399" y="1391" type="line"/>
      <point x="1562" y="1450" type="line"/>
      <point x="1564" y="1486" type="line"/>
      <point x="1090" y="1486" type="line"/>
      <point x="1085" y="1450" type="line"/>
      <point x="1301" y="1391" type="line"/>
      <point x="1179" y="239" type="line"/>
      <point x="1226" y="298" type="line"/>
      <point x="1103" y="588" type="line"/>
      <point x="672" y="1486" type="line"/>
      <point x="167" y="1486" type="line"/>
      <point x="161" y="1447" type="line"/>
      <point x="312" y="1411" type="line"/>
      <point x="117" y="95" type="line"/>
    </contour>
  </outline>
</glyph>
<glyph name="O" format="1">
  <advance width="1485"/>
  <unicode hex="004F"/>
  <outline>
    <contour>
      <point x="177" y="1486" type="move" name="topleft"/>
    </contour>
    <contour>
      <point x="782" y="744" type="move" name="center"/>
    </contour>
    <contour>
      <point x="678" y="0" type="move" name="bottom"/>
    </contour>
    <contour>
      <point x="879" y="1486" type="move" name="top"/>
    </contour>
    <contour>
      <point x="1216" y="1486" type="move" name="topright"/>
    </contour>
    <contour>
      <point x="886" y="11" type="move" name="ogonek"/>
    </contour>
    <contour>
      <point x="663" y="-24" type="curve"/>
      <point x="1222" y="-24"/>
      <point x="1479" y="428"/>
      <point x="1477" y="885" type="curve"/>
      <point x="1475" y="1189"/>
      <point x="1359" y="1505"/>
      <point x="889" y="1505" type="curve"/>
      <point x="325" y="1505"/>
      <point x="68" y="1055"/>
      <point x="70" y="600" type="curve"/>
      <point x="72" y="295"/>
      <point x="190" y="-24"/>
    </contour>
    <contour>
      <point x="678" y="34" type="curve"/>
      <point x="487" y="34"/>
      <point x="465" y="355"/>
      <point x="464" y="544" type="curve"/>
      <point x="462" y="1009"/>
      <point x="613" y="1446"/>
      <point x="868" y="1447" type="curve"/>
      <point x="1071" y="1448"/>
      <point x="1081" y="1125"/>
      <point x="1082" y="943" type="curve"/>
      <point x="1085" y="470"/>
      <point x="932" y="34"/>
    </contour>
  </outline>
</glyph>
<glyph name="P" format="1">
  <advance width="1340"/>
  <unicode hex="0050"/>
  <outline>
    <contour>
      <point x="319" y="-166" type="move" name="btm"/>
    </contour>
    <contour>
      <point x="787" y="1486" type="move" name="top"/>
    </contour>
    <contour>
      <point x="-36" y="38" type="line"/>
      <point x="-41" y="0" type="line"/>
      <point x="789" y="0" type="line"/>
      <point x="793" y="39" type="line"/>
      <point x="489" y="93" type="line"/>
      <point x="679" y="1450" type="line"/>
      <point x="664" y="1430" type="line"/>
      <point x="697" y="1435"/>
      <point x="726" y="1442"/>
      <point x="782" y="1442" type="curve"/>
      <point x="927" y="1442"/>
      <point x="977" y="1314"/>
      <point x="978" y="1128" type="curve"/>
      <point x="979" y="926"/>
      <point x="895" y="576"/>
      <point x="648" y="576" type="curve"/>
      <point x="621" y="576"/>
      <point x="582" y="579"/>
      <point x="528" y="593" type="curve"/>
      <point x="520" y="525" type="line"/>
      <point x="568" y="515"/>
      <point x="644" y="509"/>
      <point x="704" y="509" type="curve"/>
      <point x="1277" y="509"/>
      <point x="1379" y="884"/>
      <point x="1378" y="1090" type="curve"/>
      <point x="1377" y="1340"/>
      <point x="1212" y="1499"/>
      <point x="863" y="1497" type="curve"/>
      <point x="700" y="1496"/>
      <point x="578" y="1486"/>
      <point x="482" y="1486" type="curve"/>
      <point x="169" y="1486" type="line"/>
      <point x="164" y="1450" type="line"/>
      <point x="289" y="1413" type="line"/>
      <point x="101" y="72" type="line"/>
    </contour>
  </outline>
</glyph>
<glyph name="Q" format="1">
  <advance width="1485"/>
  <unicode hex="0051"/>
  <outline>
    <contour>
      <point x="1027" y="-421" type="curve"/>
      <point x="1168" y="-421"/>
      <point x="1300" y="-382"/>
      <point x="1366" y="-341" type="curve"/>
      <point x="1364" y="-137" type="line"/>
      <point x="1277" y="-164"/>
      <point x="1193" y="-178"/>
      <point x="1111" y="-178" type="curve"/>
      <point x="942" y="-178"/>
      <point x="787" y="-163"/>
      <point x="788" y="6" type="curve"/>
      <point x="725" y="-10" type="line"/>
      <point x="574" y="-241"/>
      <point x="729" y="-421"/>
    </contour>
    <contour>
      <point x="663" y="-24" type="curve"/>
      <point x="1222" y="-24"/>
      <point x="1479" y="428"/>
      <point x="1477" y="885" type="curve"/>
      <point x="1475" y="1189"/>
      <point x="1359" y="1505"/>
      <point x="889" y="1505" type="curve"/>
      <point x="325" y="1505"/>
      <point x="68" y="1055"/>
      <point x="70" y="600" type="curve"/>
      <point x="72" y="295"/>
      <point x="190" y="-24"/>
    </contour>
    <contour>
      <point x="678" y="34" type="curve"/>
      <point x="487" y="34"/>
      <point x="465" y="355"/>
      <point x="464" y="544" type="curve"/>
      <point x="462" y="1009"/>
      <point x="613" y="1446"/>
      <point x="868" y="1447" type="curve"/>
      <point x="1071" y="1448"/>
      <point x="1081" y="1125"/>
      <point x="1082" y="943" type="curve"/>
      <point x="1085" y="470"/>
      <point x="932" y="34"/>
    </contour>
  </outline>
</glyph>
<glyph name="R" format="1">
  <advance width="1451"/>
  <unicode hex="0052"/>
  <outline>
    <contour>
      <point x="769" y="1486" type="move" name="top"/>
    </contour>
    <contour>
      <point x="770" y="0" type="move" name="bottom"/>
    </contour>
    <contour>
      <point x="-36" y="38" type="line"/>
      <point x="-41" y="0" type="line"/>
      <point x="618" y="0" type="line"/>
      <point x="625" y="38" type="line"/>
      <point x="485" y="72" type="line"/>
      <point x="679" y="1463" type="line"/>
      <point x="656" y="1420" type="line"/>
      <point x="684" y="1436"/>
      <point x="726" y="1442"/>
      <point x="772" y="1442" type="curve"/>
      <point x="929" y="1442"/>
      <point x="989" y="1313"/>
      <point x="990" y="1134" type="curve"/>
      <point x="991" y="942"/>
      <point x="922" y="675"/>
      <point x="680" y="695" type="curve"/>
      <point x="634" y="698"/>
      <point x="590" y="696"/>
      <point x="560" y="702" type="curve"/>
      <point x="551" y="633" type="line"/>
      <point x="598" y="633"/>
      <point x="647" y="633"/>
      <point x="726" y="633" type="curve"/>
      <point x="774" y="589"/>
      <point x="823" y="426"/>
      <point x="866" y="273" type="curve"/>
      <point x="905" y="137"/>
      <point x="958" y="0"/>
      <point x="1006" y="0" type="curve"/>
      <point x="1426" y="0" type="line"/>
      <point x="1431" y="40" type="line"/>
      <point x="1345" y="55"/>
      <point x="1307" y="188"/>
      <point x="1254" y="329" type="curve"/>
      <point x="1186" y="511"/>
      <point x="1104" y="690"/>
      <point x="873" y="706" type="curve"/>
      <point x="827" y="645" type="line"/>
      <point x="1211" y="685"/>
      <point x="1369" y="901"/>
      <point x="1368" y="1134" type="curve"/>
      <point x="1367" y="1349"/>
      <point x="1238" y="1499"/>
      <point x="830" y="1499" type="curve"/>
      <point x="700" y="1499"/>
      <point x="606" y="1486"/>
      <point x="473" y="1486" type="curve"/>
      <point x="169" y="1486" type="line"/>
      <point x="164" y="1450" type="line"/>
      <point x="289" y="1413" type="line"/>
      <point x="101" y="72" type="line"/>
    </contour>
  </outline>
</glyph>
<glyph name="S" format="1">
  <advance width="1179"/>
  <unicode hex="0053"/>
  <outline>
    <contour>
      <point x="732" y="1486" type="move" name="top"/>
    </contour>
    <contour>
      <point x="503" y="0" type="move" name="bottom"/>
    </contour>
    <contour>
      <point x="505" y="-24" type="curve"/>
      <point x="914" y="-24"/>
      <point x="1120" y="170"/>
      <point x="1119" y="424" type="curve"/>
      <point x="1118" y="614"/>
      <point x="975" y="741"/>
      <point x="809" y="845" type="curve"/>
      <point x="606" y="970"/>
      <point x="507" y="1046"/>
      <point x="507" y="1174" type="curve"/>
      <point x="506" y="1346"/>
      <point x="601" y="1447"/>
      <point x="748" y="1447" type="curve"/>
      <point x="824" y="1447"/>
      <point x="876" y="1423"/>
      <point x="900" y="1402" type="curve"/>
      <point x="924" y="1138" type="line"/>
      <point x="1134" y="1138" type="line"/>
      <point x="1187" y="1432" type="line"/>
      <point x="1122" y="1468"/>
      <point x="981" y="1504"/>
      <point x="768" y="1504" type="curve"/>
      <point x="457" y="1504"/>
      <point x="172" y="1361"/>
      <point x="173" y="1035" type="curve"/>
      <point x="174" y="838"/>
      <point x="320" y="715"/>
      <point x="495" y="606" type="curve"/>
      <point x="686" y="486"/>
      <point x="748" y="416"/>
      <point x="749" y="277" type="curve"/>
      <point x="749" y="139"/>
      <point x="677" y="34"/>
      <point x="514" y="34" type="curve"/>
      <point x="420" y="34"/>
      <point x="341" y="88"/>
      <point x="310" y="126" type="curve"/>
      <point x="295" y="382" type="line"/>
      <point x="88" y="382" type="line"/>
      <point x="27" y="74" type="line"/>
      <point x="77" y="38"/>
      <point x="314" y="-24"/>
    </contour>
  </outline>
</glyph>
<glyph name="T" format="1">
  <advance width="1455"/>
  <unicode hex="0054"/>
  <outline>
    <contour>
      <point x="847" y="1486" type="move" name="top"/>
    </contour>
    <contour>
      <point x="653" y="0" type="move" name="bottom"/>
    </contour>
    <contour>
      <point x="1523" y="1486" type="line"/>
      <point x="198" y="1486" type="line"/>
      <point x="94" y="951" type="line"/>
      <point x="273" y="951" type="line"/>
      <point x="473" y="1425" type="line"/>
      <point x="665" y="1434" type="line"/>
      <point x="477" y="84" type="line"/>
      <point x="235" y="39" type="line"/>
      <point x="230" y="0" type="line"/>
      <point x="1119" y="0" type="line"/>
      <point x="1123" y="39" type="line"/>
      <point x="871" y="84" type="line"/>
      <point x="1059" y="1434" type="line"/>
      <point x="1237" y="1425" type="line"/>
      <point x="1311" y="951" type="line"/>
      <point x="1467" y="951" type="line"/>
    </contour>
  </outline>
</glyph>
<glyph name="U" format="1">
  <advance width="1425"/>
  <unicode hex="0055"/>
  <outline>
    <contour>
      <point x="928" y="1486" type="move" name="top"/>
    </contour>
    <contour>
      <point x="930" y="20" type="move" name="ogonek"/>
    </contour>
    <contour>
      <point x="1318" y="1483" type="move" name="topright"/>
    </contour>
    <contour>
      <point x="713" y="0" type="move" name="bottom"/>
    </contour>
    <contour>
      <point x="1292" y="611" type="curve"/>
      <point x="1413" y="1413" type="line"/>
      <point x="1533" y="1450" type="line"/>
      <point x="1534" y="1486" type="line"/>
      <point x="1158" y="1486" type="line"/>
      <point x="1153" y="1450" type="line"/>
      <point x="1318" y="1413" type="line"/>
      <point x="1214" y="612" type="line" smooth="yes"/>
      <point x="1172" y="286"/>
      <point x="1069" y="103"/>
      <point x="798" y="103" type="curve"/>
      <point x="590" y="103"/>
      <point x="533" y="241"/>
      <point x="532" y="391" type="curve"/>
      <point x="531" y="458"/>
      <point x="538" y="532"/>
      <point x="550" y="610" type="curve"/>
      <point x="662" y="1413" type="line"/>
      <point x="827" y="1450" type="line"/>
      <point x="831" y="1486" type="line"/>
      <point x="158" y="1486" type="line"/>
      <point x="153" y="1450" type="line"/>
      <point x="268" y="1413" type="line"/>
      <point x="156" y="610" type="line" smooth="yes"/>
      <point x="147" y="552"/>
      <point x="144" y="499"/>
      <point x="144" y="449" type="curve"/>
      <point x="145" y="138"/>
      <point x="306" y="-20"/>
      <point x="691" y="-20" type="curve"/>
      <point x="1128" y="-20"/>
      <point x="1235" y="227"/>
    </contour>
  </outline>
</glyph>
<glyph name="V" format="1">
  <advance width="1344"/>
  <unicode hex="0056"/>
  <outline>
    <contour>
      <point x="999" y="1660" type="move" name="top"/>
    </contour>
    <contour>
      <point x="192" y="1414" type="line"/>
      <point x="441" y="0" type="line"/>
      <point x="764" y="0" type="line"/>
      <point x="1371" y="1417" type="line"/>
      <point x="1514" y="1452" type="line"/>
      <point x="1519" y="1486" type="line"/>
      <point x="1091" y="1486" type="line"/>
      <point x="1086" y="1452" type="line"/>
      <point x="1250" y="1417" type="line"/>
      <point x="821" y="324" type="line"/>
      <point x="733" y="66" type="line"/>
      <point x="774" y="115" type="line"/>
      <point x="731" y="471" type="line"/>
      <point x="593" y="1414" type="line"/>
      <point x="754" y="1448" type="line"/>
      <point x="759" y="1486" type="line"/>
      <point x="74" y="1486" type="line"/>
      <point x="70" y="1448" type="line"/>
    </contour>
  </outline>
</glyph>
<glyph name="W" format="1">
  <advance width="2166"/>
  <unicode hex="0057"/>
  <outline>
    <contour>
      <point x="1219" y="1486" type="move" name="top"/>
    </contour>
    <contour>
      <point x="956" y="0" type="move" name="bottom"/>
    </contour>
    <contour>
      <point x="1035" y="1414" type="line"/>
      <point x="1316" y="-4" type="line"/>
      <point x="1638" y="-2" type="line"/>
      <point x="2192" y="1417" type="line"/>
      <point x="2336" y="1452" type="line"/>
      <point x="2341" y="1486" type="line"/>
      <point x="1913" y="1486" type="line"/>
      <point x="1907" y="1452" type="line"/>
      <point x="2072" y="1417" type="line"/>
      <point x="1685" y="324" type="line"/>
      <point x="1602" y="76" type="line"/>
      <point x="1647" y="125" type="line"/>
      <point x="1605" y="472" type="line"/>
      <point x="1436" y="1414" type="line"/>
      <point x="1597" y="1448" type="line"/>
      <point x="1602" y="1486" type="line"/>
      <point x="917" y="1486" type="line"/>
      <point x="913" y="1448" type="line"/>
    </contour>
    <contour>
      <point x="189" y="1414" type="line"/>
      <point x="470" y="-4" type="line"/>
      <point x="793" y="-2" type="line"/>
      <point x="1346" y="1416" type="line"/>
      <point x="1226" y="1416" type="line"/>
      <point x="840" y="323" type="line"/>
      <point x="756" y="76" type="line"/>
      <point x="802" y="125" type="line"/>
      <point x="760" y="472" type="line"/>
      <point x="591" y="1414" type="line"/>
      <point x="752" y="1448" type="line"/>
      <point x="757" y="1486" type="line"/>
      <point x="72" y="1486" type="line"/>
      <point x="68" y="1448" type="line"/>
    </contour>
  </outline>
</glyph>
<glyph name="X" format="1">
  <advance width="1521"/>
  <unicode hex="0058"/>
  <outline>
    <contour>
      <point x="996" y="1660" type="move" name="top"/>
    </contour>
    <contour>
      <point x="688" y="0" type="move" name="bottom"/>
    </contour>
    <contour>
      <point x="-58" y="38" type="line"/>
      <point x="-65" y="0" type="line"/>
      <point x="448" y="0" type="line"/>
      <point x="454" y="38" type="line"/>
      <point x="256" y="84" type="line"/>
      <point x="709" y="653" type="line"/>
      <point x="919" y="796" type="line"/>
      <point x="1458" y="1401" type="line"/>
      <point x="1627" y="1450" type="line"/>
      <point x="1632" y="1486" type="line"/>
      <point x="1139" y="1486" type="line"/>
      <point x="1131" y="1450" type="line"/>
      <point x="1337" y="1401" type="line"/>
      <point x="896" y="851" type="line"/>
      <point x="683" y="707" type="line"/>
      <point x="138" y="84" type="line"/>
    </contour>
    <contour>
      <point x="706" y="38" type="line"/>
      <point x="699" y="0" type="line"/>
      <point x="1439" y="0" type="line"/>
      <point x="1445" y="38" type="line"/>
      <point x="1296" y="84" type="line"/>
      <point x="949" y="860" type="line"/>
      <point x="942" y="878" type="line"/>
      <point x="737" y="1402" type="line"/>
      <point x="913" y="1453" type="line"/>
      <point x="921" y="1487" type="line"/>
      <point x="177" y="1487" type="line"/>
      <point x="171" y="1451" type="line"/>
      <point x="314" y="1401" type="line"/>
      <point x="645" y="651" type="line"/>
      <point x="652" y="633" type="line"/>
      <point x="877" y="84" type="line"/>
    </contour>
  </outline>
</glyph>
<glyph name="Y" format="1">
  <advance width="1254"/>
  <unicode hex="0059"/>
  <outline>
    <contour>
      <point x="516" y="-166" type="move" name="btm"/>
    </contour>
    <contour>
      <point x="107" y="1486" type="move" name="topleft"/>
    </contour>
    <contour>
      <point x="810" y="1486" type="move" name="top"/>
    </contour>
    <contour>
      <point x="525" y="0" type="move" name="bottom"/>
    </contour>
    <contour>
      <point x="149" y="39" type="line"/>
      <point x="143" y="0" type="line"/>
      <point x="1032" y="0" type="line"/>
      <point x="1036" y="39" type="line"/>
      <point x="779" y="84" type="line"/>
      <point x="871" y="744" type="line"/>
      <point x="783" y="561" type="line"/>
      <point x="1304" y="1417" type="line"/>
      <point x="1447" y="1452" type="line"/>
      <point x="1452" y="1486" type="line"/>
      <point x="1043" y="1486" type="line"/>
      <point x="1038" y="1452" type="line"/>
      <point x="1181" y="1417" type="line"/>
      <point x="865" y="845" type="line"/>
      <point x="736" y="610" type="line"/>
      <point x="839" y="698" type="line"/>
      <point x="777" y="891" type="line"/>
      <point x="580" y="1413" type="line"/>
      <point x="733" y="1452" type="line"/>
      <point x="738" y="1486" type="line"/>
      <point x="66" y="1486" type="line"/>
      <point x="61" y="1452" type="line"/>
      <point x="176" y="1417" type="line"/>
      <point x="529" y="537" type="line"/>
      <point x="492" y="801" type="line"/>
      <point x="393" y="84" type="line"/>
    </contour>
  </outline>
</glyph>
<glyph name="Z" format="1">
  <advance width="1416"/>
  <unicode hex="005A"/>
  <outline>
    <contour>
      <point x="862" y="1486" type="move" name="top"/>
    </contour>
    <contour>
      <point x="651" y="0" type="move" name="bottom"/>
    </contour>
    <contour>
      <point x="1484" y="1486" type="line"/>
      <point x="278" y="1486" type="line"/>
      <point x="196" y="1063" type="line"/>
      <point x="385" y="1063" type="line"/>
      <point x="548" y="1407" type="line"/>
      <point x="1072" y="1431" type="line"/>
      <point x="924" y="1273" type="line"/>
      <point x="-32" y="29" type="line"/>
      <point x="-19" y="0" type="line"/>
      <point x="1265" y="0" type="line"/>
      <point x="1366" y="451" type="line"/>
      <point x="1179" y="471" type="line"/>
      <point x="963" y="81" type="line"/>
      <point x="397" y="54" type="line"/>
      <point x="550" y="211" type="line"/>
      <point x="1498" y="1456" type="line"/>
    </contour>
  </outline>
</glyph>
<glyph name="AE" format="1">
  <advance width="2007"/>
  <unicode hex="00C6"/>
  <outline>
    <contour>
      <point x="1185" y="1486" type="move" name="top"/>
    </contour>
    <contour>
      <point x="663" y="39" type="line"/>
      <point x="656" y="-1" type="line"/>
      <point x="1843" y="0" type="line"/>
      <point x="1971" y="457" type="line"/>
      <point x="1790" y="476" type="line"/>
      <point x="1580" y="80" type="line"/>
      <point x="1193" y="54" type="line"/>
      <point x="1286" y="728" type="line"/>
      <point x="1726" y="712" type="line"/>
      <point x="1748" y="820" type="line"/>
      <point x="1295" y="793" type="line"/>
      <point x="1384" y="1434" type="line"/>
      <point x="1715" y="1408" type="line"/>
      <point x="1809" y="1109" type="line"/>
      <point x="1957" y="1109" type="line"/>
      <point x="1978" y="1486" type="line"/>
      <point x="578" y="1486" type="line"/>
      <point x="573" y="1450" type="line"/>
      <point x="831" y="1413" type="line"/>
      <point x="-25" y="72" type="line"/>
      <point x="-188" y="39" type="line"/>
      <point x="-191" y="0" type="line"/>
      <point x="361" y="0" type="line"/>
      <point x="363" y="39" type="line"/>
      <point x="186" y="72" type="line"/>
      <point x="382" y="432" type="line"/>
      <point x="850" y="432" type="line"/>
      <point x="800" y="72" type="line"/>
    </contour>
    <contour>
      <point x="422" y="498" type="line"/>
      <point x="923" y="1413" type="line"/>
      <point x="987" y="1413" type="line"/>
      <point x="859" y="498" type="line"/>
    </contour>
  </outline>
</glyph>
<glyph name="Eth" format="1">
  <advance width="1530"/>
  <unicode hex="00D0"/>
  <outline>
    <contour>
      <point x="87" y="800" type="line"/>
      <point x="78" y="732" type="line"/>
      <point x="912" y="732" type="line"/>
      <point x="922" y="800" type="line"/>
    </contour>
    <contour>
      <point x="-14" y="39" type="line"/>
      <point x="-19" y="0" type="line"/>
      <point x="298" y="0" type="line"/>
      <point x="388" y="0"/>
      <point x="554" y="-23"/>
      <point x="670" y="-23" type="curve"/>
      <point x="1254" y="-23"/>
      <point x="1527" y="404"/>
      <point x="1524" y="923" type="curve"/>
      <point x="1522" y="1221"/>
      <point x="1386" y="1502"/>
      <point x="928" y="1502" type="curve"/>
      <point x="806" y="1502"/>
      <point x="669" y="1486"/>
      <point x="518" y="1486" type="curve"/>
      <point x="191" y="1486" type="line"/>
      <point x="186" y="1450" type="line"/>
      <point x="311" y="1413" type="line"/>
      <point x="124" y="72" type="line"/>
    </contour>
    <contour>
      <point x="657" y="34" type="curve"/>
      <point x="531" y="34"/>
      <point x="533" y="67"/>
      <point x="414" y="79" type="curve"/>
      <point x="511" y="29" type="line"/>
      <point x="711" y="1458" type="line"/>
      <point x="672" y="1410" type="line"/>
      <point x="702" y="1424"/>
      <point x="744" y="1447"/>
      <point x="851" y="1447" type="curve"/>
      <point x="1070" y="1447"/>
      <point x="1125" y="1262"/>
      <point x="1127" y="941" type="curve"/>
      <point x="1128" y="572"/>
      <point x="1038" y="34"/>
    </contour>
  </outline>
</glyph>
<glyph name="Oslash" format="1">
  <advance width="1485"/>
  <unicode hex="00D8"/>
  <outline>
    <contour>
      <point x="865" y="1486" type="move" name="top"/>
    </contour>
    <contour>
      <point x="263" y="-164" type="line"/>
      <point x="1338" y="1601" type="line"/>
      <point x="1274" y="1649" type="line"/>
      <point x="199" y="-116" type="line"/>
    </contour>
    <contour>
      <point x="663" y="-24" type="curve"/>
      <point x="1222" y="-24"/>
      <point x="1479" y="428"/>
      <point x="1477" y="885" type="curve"/>
      <point x="1475" y="1189"/>
      <point x="1359" y="1505"/>
      <point x="889" y="1505" type="curve"/>
      <point x="325" y="1505"/>
      <point x="68" y="1055"/>
      <point x="70" y="600" type="curve"/>
      <point x="72" y="295"/>
      <point x="190" y="-24"/>
    </contour>
    <contour>
      <point x="678" y="34" type="curve"/>
      <point x="487" y="34"/>
      <point x="465" y="355"/>
      <point x="464" y="544" type="curve"/>
      <point x="462" y="1009"/>
      <point x="613" y="1446"/>
      <point x="868" y="1447" type="curve"/>
      <point x="1071" y="1448"/>
      <point x="1081" y="1125"/>
      <point x="1082" y="943" type="curve"/>
      <point x="1085" y="470"/>
      <point x="932" y="34"/>
    </contour>
  </outline>
</glyph>
<glyph name="Thorn" format="1">
  <advance width="1331"/>
  <unicode hex="00DE"/>
  <outline>
    <contour>
      <point x="-36" y="38" type="line"/>
      <point x="-41" y="0" type="line"/>
      <point x="670" y="0" type="line"/>
      <point x="677" y="38" type="line"/>
      <point x="495" y="72" type="line"/>
      <point x="538" y="378" type="line"/>
      <point x="586" y="370"/>
      <point x="644" y="366"/>
      <point x="692" y="366" type="curve"/>
      <point x="1220" y="366"/>
      <point x="1312" y="642"/>
      <point x="1311" y="814" type="curve"/>
      <point x="1310" y="1045"/>
      <point x="1147" y="1157"/>
      <point x="808" y="1157" type="curve"/>
      <point x="750" y="1157"/>
      <point x="697" y="1153"/>
      <point x="646" y="1148" type="curve"/>
      <point x="683" y="1413" type="line"/>
      <point x="842" y="1450" type="line"/>
      <point x="846" y="1486" type="line"/>
      <point x="169" y="1486" type="line"/>
      <point x="164" y="1450" type="line"/>
      <point x="289" y="1413" type="line"/>
      <point x="101" y="72" type="line"/>
    </contour>
    <contour>
      <point x="545" y="429" type="curve"/>
      <point x="638" y="1096" type="line"/>
      <point x="664" y="1101"/>
      <point x="695" y="1106"/>
      <point x="733" y="1106" type="curve"/>
      <point x="890" y="1106"/>
      <point x="927" y="977"/>
      <point x="928" y="838" type="curve"/>
      <point x="929" y="687"/>
      <point x="852" y="420"/>
      <point x="613" y="420" type="curve"/>
      <point x="588" y="420"/>
      <point x="568" y="423"/>
    </contour>
  </outline>
</glyph>
<glyph name="Lslash" format="1">
  <advance width="1292"/>
  <unicode hex="0141"/>
  <outline>
    <contour>
      <point x="22" y="688" type="line"/>
      <point x="49" y="620" type="line"/>
      <point x="973" y="980" type="line"/>
      <point x="944" y="1051" type="line"/>
    </contour>
    <contour>
      <point x="-11" y="38" type="line"/>
      <point x="-16" y="0" type="line"/>
      <point x="1146" y="0" type="line"/>
      <point x="1271" y="523" type="line"/>
      <point x="1089" y="542" type="line"/>
      <point x="892" y="84" type="line"/>
      <point x="518" y="53" type="line"/>
      <point x="709" y="1413" type="line"/>
      <point x="868" y="1450" type="line"/>
      <point x="872" y="1486" type="line"/>
      <point x="195" y="1486" type="line"/>
      <point x="189" y="1450" type="line"/>
      <point x="315" y="1413" type="line"/>
      <point x="127" y="72" type="line"/>
    </contour>
  </outline>
</glyph>
<glyph name="Eng" format="1">
  <advance width="1611"/>
  <unicode hex="014A"/>
  <outline>
    <contour>
      <point x="509" y="-479" type="curve"/>
      <point x="547" y="-530" type="line"/>
      <point x="864" y="-494"/>
      <point x="1171" y="-244"/>
      <point x="1218" y="94" type="curve"/>
      <point x="1399" y="1391" type="line"/>
      <point x="1562" y="1450" type="line"/>
      <point x="1565" y="1486" type="line"/>
      <point x="1090" y="1486" type="line"/>
      <point x="1085" y="1450" type="line"/>
      <point x="1300" y="1391" type="line"/>
      <point x="1193" y="377" type="line"/>
      <point x="1106" y="582" type="line"/>
      <point x="670" y="1486" type="line"/>
      <point x="167" y="1486" type="line"/>
      <point x="161" y="1447" type="line"/>
      <point x="312" y="1411" type="line"/>
      <point x="117" y="95" type="line"/>
      <point x="-36" y="36" type="line"/>
      <point x="-38" y="0" type="line"/>
      <point x="435" y="0" type="line"/>
      <point x="441" y="36" type="line"/>
      <point x="216" y="95" type="line"/>
      <point x="360" y="1310" type="line"/>
      <point x="451" y="1058" type="line"/>
      <point x="958" y="0" type="line"/>
      <point x="931" y="-289"/>
      <point x="651" y="-453"/>
    </contour>
  </outline>
</glyph>
<glyph name="OE" format="1">
  <advance width="2275"/>
  <unicode hex="0152"/>
  <outline>
    <contour>
      <point x="663" y="-24" type="curve"/>
      <point x="850" y="-24"/>
      <point x="1003" y="40"/>
      <point x="1121" y="145" type="curve"/>
      <point x="1100" y="0" type="line"/>
      <point x="2120" y="0" type="line"/>
      <point x="2239" y="457" type="line"/>
      <point x="2057" y="476" type="line"/>
      <point x="1859" y="79" type="line"/>
      <point x="1492" y="53" type="line"/>
      <point x="1586" y="727" type="line"/>
      <point x="1996" y="713" type="line"/>
      <point x="2017" y="821" type="line"/>
      <point x="1595" y="792" type="line"/>
      <point x="1685" y="1434" type="line"/>
      <point x="1992" y="1408" type="line"/>
      <point x="2087" y="1109" type="line"/>
      <point x="2236" y="1109" type="line"/>
      <point x="2257" y="1486" type="line"/>
      <point x="1308" y="1486" type="line"/>
      <point x="1287" y="1331" type="line"/>
      <point x="1206" y="1436"/>
      <point x="1078" y="1505"/>
      <point x="889" y="1505" type="curve"/>
      <point x="325" y="1505"/>
      <point x="68" y="1055"/>
      <point x="70" y="600" type="curve"/>
      <point x="72" y="295"/>
      <point x="190" y="-24"/>
    </contour>
    <contour>
      <point x="678" y="34" type="curve"/>
      <point x="487" y="34"/>
      <point x="465" y="355"/>
      <point x="464" y="544" type="curve"/>
      <point x="462" y="1009"/>
      <point x="613" y="1446"/>
      <point x="868" y="1447" type="curve"/>
      <point x="1071" y="1448"/>
      <point x="1081" y="1125"/>
      <point x="1082" y="943" type="curve"/>
      <point x="1085" y="470"/>
      <point x="932" y="34"/>
    </contour>
  </outline>
</glyph>
<glyph name="Ohorn" format="1">
  <advance width="1541"/>
  <unicode hex="01A0"/>
  <outline>
    <contour>
      <point x="858" y="1486" type="move" name="top"/>
    </contour>
    <contour>
      <point x="671" y="0" type="move" name="bottom"/>
    </contour>
    <contour>
      <point x="1157" y="1386" type="curve"/>
      <point x="1205" y="1310" type="line"/>
      <point x="1427" y="1310"/>
      <point x="1670" y="1392"/>
      <point x="1668" y="1631" type="curve"/>
      <point x="1668" y="1688"/>
      <point x="1659" y="1707"/>
      <point x="1650" y="1727" type="curve"/>
      <point x="1415" y="1727" type="line"/>
      <point x="1417" y="1715"/>
      <point x="1418" y="1704"/>
      <point x="1418" y="1672" type="curve"/>
      <point x="1419" y="1548"/>
      <point x="1396" y="1386"/>
    </contour>
    <contour>
      <point x="663" y="-24" type="curve"/>
      <point x="1222" y="-24"/>
      <point x="1479" y="428"/>
      <point x="1477" y="885" type="curve"/>
      <point x="1475" y="1189"/>
      <point x="1359" y="1505"/>
      <point x="889" y="1505" type="curve"/>
      <point x="325" y="1505"/>
      <point x="68" y="1055"/>
      <point x="70" y="600" type="curve"/>
      <point x="72" y="295"/>
      <point x="190" y="-24"/>
    </contour>
    <contour>
      <point x="678" y="34" type="curve"/>
      <point x="487" y="34"/>
      <point x="465" y="355"/>
      <point x="464" y="544" type="curve"/>
      <point x="462" y="1009"/>
      <point x="613" y="1446"/>
      <point x="868" y="1447" type="curve"/>
      <point x="1071" y="1448"/>
      <point x="1081" y="1125"/>
      <point x="1082" y="943" type="curve"/>
      <point x="1085" y="470"/>
      <point x="932" y="34"/>
    </contour>
  </outline>
</glyph>
<glyph name="Uhorn" format="1">
  <advance width="1586"/>
  <unicode hex="01AF"/>
  <outline>
    <contour>
      <point x="966" y="1486" type="move" name="top"/>
    </contour>
    <contour>
      <point x="824" y="0" type="move" name="bottom"/>
    </contour>
    <contour>
      <point x="1292" y="611" type="curve"/>
      <point x="1413" y="1413" type="line"/>
      <point x="1533" y="1450" type="line"/>
      <point x="1534" y="1486" type="line"/>
      <point x="1158" y="1486" type="line"/>
      <point x="1153" y="1450" type="line"/>
      <point x="1318" y="1413" type="line"/>
      <point x="1214" y="612" type="line" smooth="yes"/>
      <point x="1172" y="286"/>
      <point x="1069" y="103"/>
      <point x="798" y="103" type="curve"/>
      <point x="590" y="103"/>
      <point x="533" y="241"/>
      <point x="532" y="391" type="curve"/>
      <point x="531" y="458"/>
      <point x="538" y="532"/>
      <point x="550" y="610" type="curve"/>
      <point x="662" y="1413" type="line"/>
      <point x="827" y="1450" type="line"/>
      <point x="831" y="1486" type="line"/>
      <point x="158" y="1486" type="line"/>
      <point x="153" y="1450" type="line"/>
      <point x="268" y="1413" type="line"/>
      <point x="156" y="610" type="line" smooth="yes"/>
      <point x="147" y="552"/>
      <point x="144" y="499"/>
      <point x="144" y="449" type="curve"/>
      <point x="145" y="138"/>
      <point x="306" y="-20"/>
      <point x="691" y="-20" type="curve"/>
      <point x="1128" y="-20"/>
      <point x="1235" y="227"/>
    </contour>
    <contour>
      <point x="1747" y="1725" type="curve"/>
      <point x="1513" y="1725" type="line"/>
      <point x="1517" y="1713"/>
      <point x="1519" y="1703"/>
      <point x="1519" y="1692" type="curve"/>
      <point x="1521" y="1628"/>
      <point x="1497" y="1488"/>
      <point x="1280" y="1488" type="curve"/>
      <point x="1327" y="1412" type="line"/>
      <point x="1525" y="1412"/>
      <point x="1768" y="1444"/>
      <point x="1767" y="1651" type="curve"/>
      <point x="1767" y="1687"/>
      <point x="1758" y="1705"/>
    </contour>
  </outline>
</glyph>
<glyph name="Ezh" format="1">
  <advance width="1240"/>
  <outline>
    <contour>
      <point x="748" y="1486" type="move" name="top"/>
    </contour>
    <contour>
      <point x="478" y="-18" type="curve"/>
      <point x="904" y="-18"/>
      <point x="1192" y="152"/>
      <point x="1191" y="412" type="curve"/>
      <point x="1190" y="626"/>
      <point x="1011" y="779"/>
      <point x="766" y="779" type="curve"/>
      <point x="803" y="754" type="line"/>
      <point x="1302" y="1450" type="line"/>
      <point x="1292" y="1486" type="line"/>
      <point x="206" y="1486" type="line"/>
      <point x="141" y="1064" type="line"/>
      <point x="319" y="1064" type="line"/>
      <point x="472" y="1407" type="line"/>
      <point x="918" y="1430" type="line"/>
      <point x="782" y="1273" type="line"/>
      <point x="436" y="771" type="line"/>
      <point x="470" y="731" type="line"/>
      <point x="508" y="744"/>
      <point x="543" y="748"/>
      <point x="566" y="748" type="curve"/>
      <point x="712" y="748"/>
      <point x="787" y="661"/>
      <point x="788" y="434" type="curve"/>
      <point x="789" y="208"/>
      <point x="688" y="39"/>
      <point x="465" y="39" type="curve"/>
      <point x="388" y="39"/>
      <point x="317" y="60"/>
      <point x="263" y="104" type="curve"/>
      <point x="226" y="440" type="line"/>
      <point x="29" y="441" type="line"/>
      <point x="-20" y="86" type="line"/>
      <point x="57" y="69"/>
      <point x="182" y="-18"/>
    </contour>
  </outline>
</glyph>
<glyph name="Germandbls" format="1">
  <advance width="1569"/>
  <outline>
    <contour>
      <point x="940" y="-19" type="curve"/>
      <point x="1309" y="-19"/>
      <point x="1549" y="170"/>
      <point x="1547" y="465" type="curve"/>
      <point x="1546" y="657"/>
      <point x="1372" y="835"/>
      <point x="1073" y="835" type="curve"/>
      <point x="1484" y="1292" type="line"/>
      <point x="1506" y="1413" type="line"/>
      <point x="1437" y="1446"/>
      <point x="1292" y="1500"/>
      <point x="1043" y="1500" type="curve"/>
      <point x="491" y="1500"/>
      <point x="243" y="1221"/>
      <point x="192" y="854" type="curve"/>
      <point x="83" y="72" type="line"/>
      <point x="-54" y="39" type="line"/>
      <point x="-59" y="0" type="line"/>
      <point x="458" y="0" type="line"/>
      <point x="579" y="906" type="line" smooth="yes"/>
      <point x="614" y="1166"/>
      <point x="723" y="1448"/>
      <point x="1020" y="1448" type="curve"/>
      <point x="1142" y="1448"/>
      <point x="1229" y="1405"/>
      <point x="1265" y="1362" type="curve"/>
      <point x="813" y="829" type="line"/>
      <point x="803" y="790" type="line"/>
      <point x="1031" y="754"/>
      <point x="1156" y="657"/>
      <point x="1157" y="445" type="curve"/>
      <point x="1158" y="248"/>
      <point x="1103" y="41"/>
      <point x="958" y="41" type="curve"/>
      <point x="889" y="41"/>
      <point x="840" y="64"/>
      <point x="834" y="172" type="curve"/>
      <point x="824" y="334" type="line"/>
      <point x="682" y="334" type="line"/>
      <point x="626" y="47" type="line"/>
      <point x="702" y="41"/>
      <point x="783" y="-19"/>
    </contour>
  </outline>
</glyph>
<glyph name="Schwa" format="1">
  <advance width="1438"/>
  <outline>
    <contour>
      <point x="616" y="-22" type="curve"/>
      <point x="1109" y="-22"/>
      <point x="1410" y="368"/>
      <point x="1407" y="904" type="curve"/>
      <point x="1406" y="1188"/>
      <point x="1289" y="1505"/>
      <point x="826" y="1505" type="curve"/>
      <point x="534" y="1505"/>
      <point x="415" y="1414"/>
      <point x="304" y="1414" type="curve"/>
      <point x="260" y="1090" type="line"/>
      <point x="448" y="1090" type="line"/>
      <point x="545" y="1291" type="line" smooth="yes"/>
      <point x="578" y="1359"/>
      <point x="691" y="1448"/>
      <point x="800" y="1448" type="curve"/>
      <point x="1031" y="1448"/>
      <point x="1031" y="1123"/>
      <point x="1032" y="869" type="curve"/>
      <point x="1032" y="830"/>
      <point x="1028" y="780"/>
      <point x="1027" y="760" type="curve"/>
      <point x="139" y="760" type="line"/>
      <point x="118" y="706"/>
      <point x="91" y="582"/>
      <point x="92" y="468" type="curve"/>
      <point x="94" y="156"/>
      <point x="343" y="-22"/>
    </contour>
    <contour>
      <point x="622" y="34" type="curve"/>
      <point x="456" y="34"/>
      <point x="449" y="235"/>
      <point x="448" y="434" type="curve"/>
      <point x="448" y="503"/>
      <point x="465" y="622"/>
      <point x="482" y="694" type="curve"/>
      <point x="1016" y="694" type="line"/>
      <point x="997" y="302"/>
      <point x="802" y="34"/>
    </contour>
  </outline>
</glyph>
